<?xml version="1.0" standalone="no"?>
<!DOCTYPE svg PUBLIC "-//W3C//DTD SVG 20010904//EN"
 "http://www.w3.org/TR/2001/REC-SVG-20010904/DTD/svg10.dtd">
<svg version="1.0" xmlns="http://www.w3.org/2000/svg"
 width="800.000000pt" height="800.000000pt" viewBox="0 0 800.000000 800.000000"
 preserveAspectRatio="xMidYMid meet">
<metadata>
Created by potrace 1.11, written by Peter Selinger 2001-2013
</metadata>
<g transform="translate(0.000000,800.000000) scale(0.100000,-0.100000)"
fill="#000000" stroke="none">
<path d="M3503 7982 c-126 -44 -216 -146 -245 -277 -11 -48 -13 -249 -13 -967
1 -500 -1 -908 -4 -908 -3 0 -427 420 -941 933 -748 747 -945 939 -985 958
-43 21 -64 24 -160 24 -170 0 -165 3 -534 -365 -258 -259 -312 -318 -335 -367
-34 -71 -36 -80 -37 -166 -1 -82 22 -156 67 -217 18 -25 443 -454 943 -955
501 -500 911 -912 911 -915 0 -3 -406 -6 -902 -6 -497 0 -925 -3 -952 -7 -70
-9 -153 -53 -206 -108 -49 -51 -70 -76 -71 -84 0 -2 -8 -22 -17 -42 -15 -34
-17 -89 -20 -493 -3 -449 -2 -455 20 -523 12 -38 28 -72 35 -74 7 -3 13 -11
13 -17 0 -22 88 -96 143 -122 30 -13 74 -27 98 -32 24 -4 454 -7 956 -7 502 1
911 0 910 -2 -15 -19 -240 -241 -244 -241 -3 0 -9 -6 -14 -13 -15 -25 -1063
-1069 -1073 -1069 -5 0 -7 -2 -4 -5 3 -3 -109 -119 -249 -258 -247 -246 -322
-333 -326 -376 -1 -12 -4 -21 -7 -21 -3 0 -6 -8 -7 -17 -19 -234 -16 -239 369
-623 365 -365 374 -371 538 -372 83 0 139 17 205 63 22 15 452 439 955 943
503 504 917 916 920 916 3 0 6 -408 5 -907 0 -500 3 -924 7 -943 13 -69 17
-82 48 -134 37 -66 97 -120 170 -155 l55 -26 465 0 c256 0 476 2 490 5 14 3
36 12 50 20 14 8 29 14 33 15 4 0 12 7 17 15 5 8 10 11 10 7 0 -4 6 -3 13 3
48 41 65 59 60 64 -4 3 -1 6 5 6 6 0 22 21 36 48 53 105 52 77 51 1065 -1 504
1 917 5 917 3 0 417 -412 920 -916 503 -503 933 -928 955 -943 117 -81 279
-86 405 -14 45 27 622 596 656 648 10 15 19 35 20 43 2 8 6 18 11 21 8 6 11
15 20 61 16 90 5 179 -33 255 -20 39 -238 262 -955 980 -511 512 -929 932
-929 935 0 3 417 6 928 6 863 0 931 1 982 18 30 10 69 29 87 42 17 13 34 24
37 24 11 0 75 75 76 88 0 6 4 12 10 12 5 0 9 3 8 8 -1 4 7 23 17 42 19 33 20
60 23 493 3 471 2 481 -37 584 -7 18 -17 30 -22 27 -5 -3 -9 1 -9 9 0 23 -86
96 -143 122 -29 14 -80 28 -113 32 -32 5 -461 8 -951 8 -491 -1 -893 1 -893 4
0 3 417 422 927 932 510 511 931 937 935 948 4 12 12 21 18 21 5 0 9 3 8 8 -1
4 4 21 11 37 44 103 30 243 -32 343 -33 51 -614 632 -653 652 -16 8 -32 19
-36 25 -4 5 -8 7 -8 3 0 -4 -16 0 -35 8 -42 17 -184 20 -214 5 -12 -7 -21 -9
-21 -6 0 4 -26 -8 -57 -25 -47 -25 -232 -205 -983 -955 -508 -509 -927 -925
-930 -925 -3 0 -7 413 -7 918 -1 504 -3 931 -5 947 -6 50 -54 141 -98 189 -25
27 -70 60 -109 79 l-66 32 -460 2 c-422 3 -464 1 -512 -15z m1025 -3453 l220
-221 0 -308 0 -309 -189 -189 c-104 -105 -204 -203 -223 -220 l-34 -29 -305
-1 -306 0 -220 219 -219 220 0 309 0 309 27 24 c14 13 33 33 42 43 9 11 45 47
80 81 35 34 115 114 178 177 l114 114 308 1 307 0 220 -220z"/>
</g>
</svg>
